<svg enable-background="new 0 0 512 512" viewBox="0 0 512 512" xmlns="http://www.w3.org/2000/svg"><g id="_x32_0_Bell"><g><circle cx="256" cy="256" fill="#2228ff" r="250"/><g><path d="m256 73.926c-11.93 0-21.637 9.708-21.637 21.637v36.023c-35.847 9.57-62.333 42.309-62.333 81.13-2.336 19.616 11.516 83.25-38.182 143.963l-2.597 3.172h-6.403c-11.93 0-21.637 9.708-21.637 21.637s9.708 21.637 21.637 21.637h92.037c2.211 19.633 18.902 34.947 39.115 34.947s36.904-15.315 39.115-34.947h92.037c11.93 0 21.637-9.708 21.637-21.637s-9.708-21.637-21.637-21.637h-6.403l-2.597-3.172c-50.028-61.116-35.864-124.493-38.182-143.963 0-39.308-26.74-71.711-62.333-81.147v-36.006c0-11.929-9.707-21.637-21.637-21.637zm0 355.273c-15.31 0-28.024-11.337-30.184-26.058h60.367c-2.159 14.72-14.873 26.058-30.183 26.058zm-12.762-333.636c0-7.038 5.724-12.762 12.762-12.762s12.762 5.724 12.762 12.762v34.149c-4.188-.636-8.45-.967-12.762-.967-4.338 0-8.6.331-12.762.968zm156.677 285.926c0 7.038-5.724 12.762-12.762 12.762h-262.306c-7.038 0-12.762-5.724-12.762-12.762s5.724-12.762 12.762-12.762h262.305c7.039 0 12.763 5.724 12.763 12.762zm-68.82-168.773c2.374 20.301-11.61 83.984 38.22 147.135h-226.63c49.893-63.231 35.92-127.468 38.22-147.135 0-41.406 33.689-75.095 75.095-75.095 41.331 0 75.095 33.389 75.095 75.095z" fill="#fff"/></g></g></g><g id="Layer_1"/></svg>