<svg id="Layer_1" enable-background="new 0 0 512 512" viewBox="0 0 512 512" xmlns="http://www.w3.org/2000/svg"><g><path d="m454.8 167.3-134.9-134.8c-17.1-17.1-39.8-26.5-63.9-26.5s-46.8 9.4-63.9 26.5l-134.9 134.8c-17.1 17.1-26.5 39.8-26.5 63.9v184.3c0 49.8 40.6 90.4 90.4 90.4h269.7c49.8 0 90.4-40.6 90.4-90.4v-184.2c.1-24.2-9.3-46.9-26.4-64z" fill="#253338"/><path d="m446.1 415.6c0 30.4-24.8 55.2-55.2 55.2h-269.8c-30.4 0-55.2-24.8-55.2-55.2v-184.3c0-14.7 5.7-28.6 16.2-39l134.9-135c10.4-10.4 24.3-16.2 39-16.2 14.8 0 28.6 5.7 39 16.2l134.9 134.9c10.4 10.4 16.2 24.3 16.2 39z" fill="#ffe0b2"/><path d="m359.1 348h-206.2c-9.7 0-17.6 7.9-17.6 17.6s7.9 17.6 17.6 17.6h206.2c9.7 0 17.6-7.9 17.6-17.6s-7.9-17.6-17.6-17.6z" fill="#253338"/></g></svg>