<svg height="385pt" viewBox="-1 0 385 385.35451" width="385pt" xmlns="http://www.w3.org/2000/svg"><path d="m167.691406 15.179688c-78.492187 10.136718-141.898437 73.371093-152.25 151.835937-6.917968 52.410156 9.09375 101.09375 39.363282 137.5v49.996094c0 12.761719 13.429687 21.058593 24.84375 15.351562l36.367187-18.179687c29.484375 13.863281 63.242187 20.140625 98.988281 15.367187 79.769532-10.640625 143.785156-75.558593 152.691406-155.542969 12.8125-115.097656-84.550781-211.242187-200.003906-196.328124zm0 0" fill="#26deeb"/><g fill="#5c128d"><path d="m71.953125 385.355469c-5.613281 0-11.207031-1.546875-16.1875-4.628907-9.152344-5.652343-14.613281-15.453124-14.613281-26.210937v-45.160156c-32.226563-40.828125-46.152344-91.8125-39.246094-144.132813 11.074219-83.945312 80.066406-152.746094 164.039062-163.589844 59.148438-7.640624 117.207032 11.75 159.355469 53.160157 42.152344 41.414062 62.542969 99.082031 55.964844 158.226562-9.53125 85.65625-78.699219 156.121094-164.453125 167.5625-34.183594 4.53125-68.757812-.199219-100.480469-13.789062l-30.578125 15.28125c-4.382812 2.1875-9.101562 3.28125-13.800781 3.28125zm97.484375-356.628907c-71.90625 9.28125-130.980469 68.1875-140.46875 140.066407-6.113281 46.359375 6.789062 91.46875 36.335938 126.988281 2.039062 2.453125 3.152343 5.546875 3.152343 8.730469v50c0 1.613281.90625 2.507812 1.660157 2.988281.773437.464844 1.996093.867188 3.429687.148438l36.371094-18.175782c3.71875-1.867187 8.121093-1.933594 11.90625-.144531 28.613281 13.425781 60.199219 18.332031 91.375 14.183594 73.492187-9.796875 132.757812-70.15625 140.933593-143.503907 5.644532-50.761718-11.84375-100.242187-47.972656-135.734374-36.128906-35.503907-85.960937-52.121094-136.722656-45.546876zm-1.746094-13.546874h.132813zm0 0"/><path d="m96.441406 234.332031 62.675782-89.203125c2.609374-4.570312 8.628906-5.8125 12.839843-2.660156l41.984375 31.488281c2.84375 2.132813 6.695313 2.332031 9.746094.503907l51.125-36.136719c7.503906-4.5 16.234375 3.582031 12.320312 11.40625l-50.613281 87.574219c-2.277343 4.558593-7.953125 6.210937-12.320312 3.589843l-56.054688-33.632812c-2.5625-1.539063-5.734375-1.660157-8.410156-.320313l-51.792969 39.546875c-7.734375 3.871094-15.792968-4.644531-11.5-12.15625zm0 0"/></g></svg>